<svg width="1897" height="1746" viewBox="0 0 1897 1746" fill="none" xmlns="http://www.w3.org/2000/svg">
<g clip-path="url(#clip0_447_49)">
<path d="M379.367 247.949C235.053 268.333 164.068 279.861 0 275.684V0H401.8C402.972 111.777 395.773 158.059 379.367 247.949Z" fill="#FEFFFF"/>
<path d="M831.225 201.166C671.677 202.503 601.864 215.702 458.053 236.587C479.817 153.214 489.36 109.94 489.527 0H891.327C889.821 108.269 871.74 141.184 831.057 201.166H831.225Z" fill="#FEFFFF"/>
<path d="M1326.11 344.522C1173.59 267.998 1097.59 221.717 942.725 204.675C982.905 145.695 1000.65 113.114 1003.16 3.00745C1156.18 19.8827 1215.95 65.4959 1342.68 140.85C1342.35 251.123 1337.33 284.205 1326.11 344.355V344.522Z" fill="#FEFFFF"/>
<path d="M1793.7 502.246C1638.17 502.414 1562 460.81 1409.48 386.125C1412.66 325.474 1413.84 292.392 1411.99 181.952C1539.4 255.634 1601.34 296.569 1762.06 296.569C1762.06 406.843 1771.77 440.426 1793.7 502.246Z" fill="#FEFFFF"/>
<path d="M319.766 541.845C209.271 603.999 156.702 638.418 0 643.263V367.579C162.394 369.584 228.859 352.375 364.634 321.632C346.051 408.848 334.331 449.449 319.766 541.678V541.845Z" fill="#FEFFFF"/>
<path d="M684.902 387.796C538.747 405.841 489.024 443.768 379.701 507.259C399.122 421.045 414.356 384.621 438.799 304.589C574.072 273.178 638.862 253.797 795.23 248.45C749.692 302.417 721.566 322.801 685.069 387.796H684.902Z" fill="#FEFFFF"/>
<path d="M1285.59 531.152C1127.72 472.506 967.335 407.01 798.411 386.96C834.573 322.634 862.197 303.253 907.065 250.789C1066.95 267.998 1150.49 314.614 1316.06 391.639C1303.51 445.439 1295.64 465.656 1285.59 531.152Z" fill="#FEFFFF"/>
<path d="M1873.06 694.056C1716.02 690.547 1540.74 633.071 1397.6 573.924C1400.27 508.261 1402.79 487.71 1406.47 433.576C1571.88 508.93 1655.08 550.867 1813.12 550.7C1837.9 606.171 1853.14 627.39 1872.89 694.056H1873.06Z" fill="#FEFFFF"/>
<path d="M314.911 883.86C205.42 967.902 153.186 1014.85 0 1010.84V735.158C156.87 730.313 205.755 691.383 309.554 621.041C300.011 719.452 296.328 783.444 314.911 883.86Z" fill="#FEFFFF"/>
<path d="M675.527 682.527C532.386 698.734 482.83 751.198 374.344 837.245C348.395 740.672 352.413 675.677 365.806 582.111C468.433 510.266 513.97 467.327 658.618 447.444C633.003 526.139 625.804 598.485 675.36 682.694L675.527 682.527Z" fill="#FEFFFF"/>
<path d="M1288.44 831.397C1126.72 770.913 962.144 703.078 788.868 683.196C739.313 598.987 746.679 524.802 772.294 446.107C947.077 466.992 1113.99 532.655 1278.39 591.134C1271.36 670.665 1266.51 743.679 1288.44 831.397Z" fill="#FEFFFF"/>
<path d="M1890.47 998.478C1721.38 995.972 1560.16 931.311 1403.62 875.673C1390.23 786.786 1394.92 713.939 1396.09 634.241C1554.3 688.041 1717.36 750.696 1887.12 755.041C1900.68 835.407 1898.84 906.75 1890.47 998.645V998.478Z" fill="#FEFFFF"/>
<path d="M421.556 1195.13C250.121 1311.92 163.901 1376.75 0 1378.42V1102.74C153.019 1106.75 212.452 1056.12 334.666 965.396C362.792 1060.8 385.394 1103.91 421.556 1195.13Z" fill="#FEFFFF"/>
<path d="M939.209 910.593C790.04 940.167 633.84 1040.25 515.309 1130.14C468.098 1044.93 438.8 1005.16 401.131 914.77C522.675 821.873 580.099 765.233 726.087 747.522C796.737 820.369 850.98 846.935 939.209 910.593Z" fill="#FEFFFF"/>
<path d="M1407.31 1076.17C1270.36 985.112 1203.89 929.808 1051.54 909.09C963.818 846.267 909.91 820.536 839.428 748.19C998.474 766.903 1167.23 833.736 1311.04 900.067C1342.85 977.593 1367.46 1007.17 1407.31 1076.17Z" fill="#FEFFFF"/>
<path d="M1844.26 1264.97C1687.23 1264.47 1619.76 1214.85 1482.31 1125.79C1455.52 1054.95 1438.61 1024.38 1418.02 945.513C1554.97 1008.67 1728.41 1069.82 1881.77 1071.33C1869.54 1154.53 1859.83 1188.62 1844.43 1264.97H1844.26Z" fill="#FEFFFF"/>
<path d="M493.21 1524.78C345.046 1615.34 181.145 1733.47 0 1746V1470.32C168.254 1460.62 313.237 1357.2 450.016 1271.99C481.658 1365.56 495.554 1413.34 493.21 1524.78Z" fill="#FEFFFF"/>
<path d="M1125.54 1179.59C938.372 1223.87 772.294 1344.34 613.75 1445.59C613.248 1335.65 594.665 1290.2 552.811 1202.15C693.943 1109.25 839.93 1001.82 1009.19 965.396C1087.71 1034.23 1122.53 1070.82 1125.54 1179.59Z" fill="#FEFFFF"/>
<path d="M1490.68 1358.37C1411.32 1259.63 1380.18 1199.98 1237.71 1177.76C1234.2 1067.98 1199.37 1031.56 1121.19 963.391C1266.17 985.279 1321.25 1041.92 1438.95 1135.48C1474.27 1209.17 1490.01 1248.26 1490.68 1358.37Z" fill="#FEFFFF"/>
<path d="M1812.29 1562.21C1651.57 1562.21 1615.4 1508.58 1534.21 1412C1536.89 1301.4 1526.67 1261.63 1503.24 1186.44C1621.6 1278.01 1678.86 1328.97 1831.87 1329.97C1818.15 1410.17 1812.12 1451.94 1812.12 1562.21H1812.29Z" fill="#FEFFFF"/>
</g>
<defs>
<clipPath id="clip0_447_49">
<rect width="1897" height="1746" fill="white"/>
</clipPath>
</defs>
</svg>
